# xmcd CD database file
#
# Track frame offsets:
#	150
#	14772
#	32240
#	46815
#
# Disc length: 854 seconds
#
# Revision: 1
# Processed by: cddbd v1.5PL3 Copyright (c) Steve Scherf et al.
# Submitted via: CDex 1.51
#
DISCID=2d035404
DTITLE=Do As Infinity - 本日ハ晴天ナリ
DYEAR=2003
DGENRE=JPop
TTITLE0=本日ハ晴天ナリ
TTITLE1=10W40
TTITLE2=本日ハ晴天ナリ (Instrumental)
TTITLE3=10W40 (Instrumental)
EXTD=YEAR: 2003
EXTT0=
EXTT1=
EXTT2=
EXTT3=
PLAYORDER=
